<?xml version="1.0" standalone="no"?>
<!DOCTYPE svg PUBLIC "-//W3C//DTD SVG 20010904//EN"
 "http://www.w3.org/TR/2001/REC-SVG-20010904/DTD/svg10.dtd">
<svg version="1.0" xmlns="http://www.w3.org/2000/svg"
 width="685.000000pt" height="685.000000pt" viewBox="0 0 685.000000 685.000000"
 preserveAspectRatio="xMidYMid meet">
<metadata>
Created by potrace 1.14, written by Peter Selinger 2001-2017
</metadata>
<g transform="translate(0.000000,685.000000) scale(0.100000,-0.100000)"
fill="#000000" stroke="none">
<path d="M3198 6814 c-2 -2 -35 -6 -73 -9 -75 -6 -135 -13 -175 -20 -14 -2
-43 -7 -65 -10 -384 -55 -858 -227 -1215 -443 -398 -240 -768 -580 -1017 -935
-31 -45 -61 -86 -66 -92 -17 -21 -116 -183 -149 -245 -19 -36 -44 -81 -55
-100 -89 -160 -212 -491 -272 -735 -25 -102 -37 -165 -66 -345 -34 -211 -39
-605 -10 -850 7 -60 25 -178 30 -200 1 -3 5 -25 9 -50 4 -25 14 -70 21 -100 8
-30 16 -66 19 -80 3 -14 10 -43 16 -65 6 -22 15 -53 19 -70 17 -62 70 -214
109 -310 189 -475 519 -941 900 -1274 32 -27 68 -59 82 -71 68 -60 265 -201
377 -271 422 -264 919 -440 1403 -495 25 -3 59 -8 75 -11 51 -9 545 -11 630
-3 118 12 183 20 250 32 33 5 69 11 80 13 16 2 92 18 235 50 87 20 383 120
490 167 193 85 506 258 615 340 6 5 53 40 105 79 137 103 208 165 361 318 119
118 248 265 314 356 71 98 101 142 164 242 216 343 392 789 455 1158 45 263
51 333 51 630 0 262 -6 376 -25 480 -5 28 -11 69 -14 92 -7 52 -60 288 -82
363 -38 126 -98 299 -123 355 -5 11 -24 54 -42 95 -110 249 -276 520 -453 740
-92 113 -111 135 -241 265 -149 150 -210 204 -350 311 -80 61 -271 194 -279
194 -2 0 -33 18 -69 39 -98 60 -309 164 -432 214 -123 49 -207 81 -215 80 -3
0 -30 8 -60 19 -60 21 -300 82 -365 94 -22 4 -49 8 -60 10 -35 7 -151 23 -206
29 -30 4 -67 9 -84 11 -33 6 -542 13 -547 8z"/>
</g>
</svg>
